<svg width="108" height="54" viewBox="0 0 108 54" fill="none" xmlns="http://www.w3.org/2000/svg" class="img-responsive"><g clip-path="url(#clip0)"><path fill-rule="evenodd" clip-rule="evenodd" d="M19.757 39.491H5.81006V7.00586H19.757L23.6173 11.034V35.4628L19.757 39.491ZM16.8101 33.7737V12.7233H12.6177V33.7737H16.8101ZM32.3896 7.00586H25.5822V39.491H32.3896V7.00586ZM49.3299 39.491H39.3678L35.5075 35.4628V11.034L39.3678 7.00586H49.3299L53.1902 11.034V18.6139H46.3828V12.7232H42.3149V33.7736H46.3828V27.2766H53.1902V35.4628L49.3299 39.491ZM54.906 39.491H61.7135V25.8905H61.921L65.9889 39.491H73.1699L67.8983 22.3822L72.9623 7.00586H66.0304L61.921 20.1732H61.7135V7.00586H54.906V39.491ZM82.3291 7.00586V13.243L79.6311 17.4444H77.3481L79.0084 13.243H77.3481V7.00586H82.3291ZM88.7678 39.491H98.7299L102.59 35.4628V25.0243L99.1865 21.2127L91.5489 18.6139V12.7232H95.7413V17.7909H102.549V11.034L98.6884 7.00586H88.7678L84.9075 11.034V21.2127L88.3112 25.0243L95.9488 27.6664V33.7736H91.7149V28.4894H84.9075V35.4628L88.7678 39.491Z" fill="#191F1C" class=""></path><path fill-rule="evenodd" clip-rule="evenodd" d="M10.0997 49.1154H6.76871L5.55164 48.201V46.6128H8.11391V47.5754H8.81853V46.5647L6.70466 46.122L5.55164 45.2557V42.8109L6.76871 41.8965H10.0997L11.3167 42.8109V44.3605H8.75447V43.4365H8.04985V44.4087L10.1637 44.8514L11.3167 45.7177V48.201L10.0997 49.1154ZM18.1844 46.815H16.1571V49.1154H13.623V41.8965H18.1844L19.3881 42.8109V45.9006L18.1844 46.815ZM16.7592 43.0996V45.5059H16.2519V43.0996H16.7592ZM21.7448 49.1154L20.5411 48.201V42.8109L21.7448 41.8965H25.1025L26.3062 42.8109V48.201L25.1025 49.1154H21.7448ZM23.6773 43.0996V46.7091H23.17V43.0996H23.6773ZM31.7484 44.3028V43.0996H31.2411V44.3028H31.7484ZM28.6122 49.1154H31.1463V46.3722H31.8432V49.1154H34.3773V46.3241L33.4904 45.6503L34.3773 44.9766V42.8109L33.1736 41.8965H28.6122V49.1154ZM37.0402 49.1155V43.5328H35.5303V41.8966H41.2954V43.5328H39.7855V49.1155H37.0402ZM44.7544 41.8966H42.4484V49.1155H44.7544V41.8966ZM47.0607 49.1154V41.8965H49.5673L50.6326 44.9958H50.6953V41.8965H52.8258V49.1154H50.4446L49.254 46.0161H49.1913V49.1154H47.0607ZM56.3355 49.1154H59.6932L60.8969 48.201V45.0728H57.9827V46.6128H58.4895V47.5754H57.6659V43.4365H58.3628V44.5915H60.8969V42.8109L59.6932 41.8965H56.3355L55.1318 42.8109V48.201L56.3355 49.1154ZM70.0704 49.1154H66.7127L65.509 48.201V42.8109L66.7127 41.8965H70.0704L71.2741 42.8109V44.5915H68.74V43.4365H68.0431V47.5754H68.8667V46.6128H68.3598V45.0728H71.2741V48.201L70.0704 49.1154ZM72.4271 48.201L73.6308 49.1154H76.9885L78.1922 48.201V42.8109L76.9885 41.8965H73.6308L72.4271 42.8109V48.201ZM75.5635 46.7091V43.0996H75.0562V46.7091H75.5635ZM80.4982 48.201L81.7019 49.1154H85.0596L86.2633 48.201V42.8109L85.0596 41.8965H81.7019L80.4982 42.8109V48.201ZM83.6344 46.7091V43.0996H83.127V46.7091H83.6344ZM88.5695 49.1154H93.131L94.3347 48.201V42.8109L93.131 41.8965H88.5695V49.1154ZM91.7055 46.7091V43.0996H91.1982V46.7091H91.7055ZM96.7047 49.1154H100.036L101.253 48.201V45.7177L100.1 44.8514L97.9859 44.4087V43.4365H98.6905V44.3605H101.253V42.8109L100.036 41.8965H96.7047L95.4876 42.8109V45.2557L96.6407 46.122L98.7545 46.5647V47.5754H98.0499V46.6128H95.4876V48.201L96.7047 49.1154Z" fill="#191F1C" class=""></path><path d="M108 53.9555V2.34766L0.0853418 2.43633L0 53.9998L108 53.9555Z" fill="#006554" class=""></path><path fill-rule="evenodd" clip-rule="evenodd" d="M18.9459 39.4901L23.5543 34.922V12.5938L18.6898 8.06836H6.40063V39.4901H18.9459ZM12.7587 33.8973V14.3015H15.7883V33.8973H12.7587Z" fill="#191F1C" class=""></path><path d="M25.8585 8.06836H32.9419V39.4901H25.8585V8.06836Z" fill="#191F1C" class=""></path><path d="M52.3999 20.1077H45.4872V13.9599H42.4149V33.5558H45.4872V26.0419H52.3999V34.922L47.7061 39.4474H40.4094L35.3315 34.922V12.5938L39.9827 8.06836H47.7061L52.3999 12.5938V20.1077Z" fill="#191F1C" class=""></path><path d="M61.7448 21.4738H61.8302L66.4386 8.06836H73.7353L67.5907 22.7119L74.6741 39.4474H66.9933L61.8302 26.0419H61.7448V39.4474H54.6188V8.06836H61.7448V21.4738Z" fill="#191F1C" class=""></path><path d="M97.8016 8.06836L102.794 12.5938V18.1865H95.7108V13.9599H92.7665V20.3638L97.9296 20.7907L102.794 25.3588V34.922L98.143 39.4474H90.2916L85.6831 34.922V29.3719H92.7665V33.5558H95.7108V26.9811L90.6329 26.5969L85.6831 22.0288V12.5938L90.3342 8.06836H97.8016Z" fill="#191F1C" class=""></path><path fill-rule="evenodd" clip-rule="evenodd" d="M18.5618 39.0213L23.1276 34.4532V12.1677L18.2631 7.59961H5.97388V39.0213H18.5618ZM12.3319 33.4286V13.8327H15.3616V33.4286H12.3319Z" fill="white" class=""></path><path d="M25.4746 7.59961H32.558V39.0213H25.4746V7.59961Z" fill="white" class=""></path><path d="M51.9731 19.6389H45.0605V13.5339H42.0308V33.087H45.0605V25.6159H51.9731V34.4532L47.322 39.0213H39.9826L34.9048 34.4532V12.1677L39.5559 7.59961H47.322L51.9731 12.1677V19.6389Z" fill="white" class=""></path><path d="M61.3181 21.0051H61.4034L66.0546 7.59961H73.3086L67.164 22.2858L74.2474 39.0213H66.5666L61.4034 25.6159H61.3181V39.0213H54.2347V7.59961H61.3181V21.0051Z" fill="white" class=""></path><path d="M97.3749 7.59961L102.367 12.1677V17.7177H95.284V13.5339H92.3397V19.8951L97.5029 20.3647L102.367 24.8901V34.4532L97.7162 39.0213H89.8648L85.2563 34.4532V28.9459H92.3397V33.087H95.284V26.5124L90.2062 26.1282L85.2563 21.5601V12.1677L89.9075 7.59961H97.3749Z" fill="white" class=""></path><path d="M11.9051 42.3076L13.6972 43.2042V44.3142H11.137V43.503H10.0702V44.7411L11.9477 44.8265L13.6972 45.7657V47.6442L12.0331 48.5834H9.17412L7.46729 47.6442V46.5342H10.0702V47.388H11.137V46.0646L9.30213 45.9792L7.46729 45.0826V43.2042L9.17412 42.3076H11.9051Z" fill="#191F1C" class=""></path><path fill-rule="evenodd" clip-rule="evenodd" d="M19.2019 42.3076L20.9514 43.2042L20.9941 45.5522L19.2446 46.4488H17.5377V48.5834H14.9348V42.3076H19.2019ZM18.4762 45.296V43.503H17.5375V45.296H18.4762Z" fill="#191F1C" class=""></path><path fill-rule="evenodd" clip-rule="evenodd" d="M26.2426 42.3076L27.9922 43.2042H28.0348V47.6442L26.3707 48.5407H23.469L21.7622 47.6442V43.2042L23.469 42.3076H26.2426ZM25.3891 47.388V43.503H24.3223V47.388H25.3891Z" fill="#191F1C" class=""></path><path fill-rule="evenodd" clip-rule="evenodd" d="M33.7526 42.3076L35.5021 43.2042V44.8692L34.222 45.4669L35.5021 46.0646V48.5834H32.9845V46.0646H31.9177V48.5834H29.3148V42.3076H33.7526ZM32.9848 44.8691V43.503H31.918V44.8691H32.9848Z" fill="#191F1C" class=""></path><path d="M41.6896 43.503H40.2388V48.5834H37.6359V43.503H36.1851V42.3076H41.6896V43.503Z" fill="#191F1C" class=""></path><path d="M42.5001 42.3076H45.103V48.5834H42.5001V42.3076Z" fill="#191F1C" class=""></path><path d="M52.7838 48.5834H50.6076L48.9434 45.5096H48.9007V48.5834H46.4685V42.3076H48.6447L50.3089 45.3388H50.3516V42.3076H52.7838V48.5834Z" fill="#191F1C" class=""></path><path d="M60.1661 44.6557H57.6058V43.503H56.3684V47.388H57.6058V46.4915H56.9231V45.2961H60.1661V47.6442L58.4592 48.5834H55.6003L53.8081 47.6442V43.2042L55.5149 42.3076H58.4166L60.1661 43.2042V44.6557Z" fill="#191F1C" class=""></path><path d="M71.7725 44.6557H69.1696V43.503H67.9748V47.388H69.1696V46.4915H68.5295V45.2961H71.7725V47.6442L70.0657 48.5834H67.2067L65.4146 47.6442V43.2042L67.1214 42.3076H70.023L71.7725 43.2042V44.6557Z" fill="#191F1C" class=""></path><path fill-rule="evenodd" clip-rule="evenodd" d="M77.3196 42.3076L79.0691 43.2042L79.1117 47.6442L77.4476 48.5407H74.5459L72.8391 47.6442V43.2042L74.5459 42.3076H77.3196ZM76.5091 47.388V43.503H75.4423V47.388H76.5091Z" fill="#191F1C" class=""></path><path fill-rule="evenodd" clip-rule="evenodd" d="M84.8723 42.3076L86.6218 43.2042L86.6645 47.6442L85.0003 48.5407H82.0987L80.3918 47.6442V43.2042L82.0987 42.3076H84.8723ZM84.019 47.388V43.503H82.9522V47.388H84.019Z" fill="#191F1C" class=""></path><path fill-rule="evenodd" clip-rule="evenodd" d="M92.4253 42.3076L94.1748 43.2042V47.6869L92.5106 48.5834H87.9448V42.3076H92.4253ZM91.5717 47.388V43.503H90.5049V47.388H91.5717Z" fill="#191F1C" class=""></path><path d="M99.6792 42.3076L101.471 43.2042V44.3142H98.9111V43.503H97.8444V44.7411L99.7219 44.8265L101.471 45.7657V47.6442L99.8072 48.5834H96.9483L95.2415 47.6442V46.5342H97.8444V47.388H98.9111V46.0646L97.0763 45.9792L95.2415 45.0826V43.2042L96.9483 42.3076H99.6792Z" fill="#191F1C" class=""></path><path d="M11.6918 42.0518L13.484 42.991V44.101H10.9237V43.2471H9.85695V44.5279L11.7345 44.6133L13.484 45.5099V47.431L11.8198 48.3276H8.91819L7.25403 47.431V46.321H9.85695V47.1322H10.9237V45.8087L9.04621 45.766L7.25403 44.8695V42.991L8.96086 42.0518H11.6918Z" fill="white" class=""></path><path fill-rule="evenodd" clip-rule="evenodd" d="M18.9888 42.0518L20.7383 42.9483L20.7809 45.2964L19.0314 46.1929H17.3246V48.3276H14.7217V42.0518H18.9888ZM18.2634 44.9976V43.2045H17.3246V44.9976H18.2634Z" fill="white" class=""></path><path fill-rule="evenodd" clip-rule="evenodd" d="M26.0293 42.0947L27.7788 42.9913H27.8214V47.4313L26.1573 48.3278H23.2557L21.5488 47.4313V42.9913L23.2557 42.0947H26.0293ZM25.176 47.1325V43.2474H24.1092V47.1325H25.176Z" fill="white" class=""></path><path fill-rule="evenodd" clip-rule="evenodd" d="M33.4965 42.0518L35.246 42.9483L35.2887 44.6133L34.0086 45.211L35.2887 45.8087V48.3276H32.7711V45.8087H31.7044V48.3276H29.1014V42.0518H33.4965ZM32.7712 44.5707V43.2045H31.7044V44.5707H32.7712Z" fill="white" class=""></path><path d="M41.4762 43.2471H40.0254V48.3276H37.4225V43.2471H35.9717V42.0518H41.4762V43.2471Z" fill="white" class=""></path><path d="M42.2869 42.0518H44.8898V48.3276H42.2869V42.0518Z" fill="white" class=""></path><path d="M52.5277 48.3276H50.3942L48.73 45.2964H48.6874V48.3276H46.2551V42.0518H48.4313L50.0955 45.0829V42.0518H52.5277V48.3276Z" fill="white" class=""></path><path d="M59.9527 44.3998H57.3498V43.2471H56.155V47.1322H57.3498V46.2356H56.7097V45.0829H59.9527V47.431L58.2459 48.3276H55.3869L53.5947 47.431V42.991L55.3016 42.0518H58.2032L59.9527 42.991V44.3998Z" fill="white" class=""></path><path d="M71.5591 44.3998H68.9562V43.2471H67.7614V47.1322H68.9562V46.2356H68.3161V45.0829H71.5591V47.431L69.8522 48.3276H66.9933L65.1584 47.431V42.991L66.908 42.0518H69.8096L71.5591 42.991V44.3998Z" fill="white" class=""></path><path fill-rule="evenodd" clip-rule="evenodd" d="M77.1062 42.0947L78.8557 42.9913L78.8984 47.4313L77.2342 48.3278H74.3326L72.6257 47.4313V42.9913L74.3326 42.0947H77.1062ZM76.2957 47.1325V43.2474H75.2289V47.1325H76.2957Z" fill="white" class=""></path><path fill-rule="evenodd" clip-rule="evenodd" d="M84.7016 42.0947L86.4511 42.9913L86.4938 47.4313L84.8296 48.3278H81.928L80.2212 47.4313V42.9913L81.928 42.0947H84.7016ZM83.8909 47.1325V43.2474H82.8241V47.1325H83.8909Z" fill="white" class=""></path><path fill-rule="evenodd" clip-rule="evenodd" d="M92.2118 42.0518L93.9613 42.9483H93.9187V47.431L92.2545 48.3276H87.6887V42.0518H92.2118ZM91.3584 47.0896V43.2045H90.2917V47.0896H91.3584Z" fill="white" class=""></path><path d="M77.7462 19.254C78.3009 18.7844 78.6849 18.3575 78.9409 17.9305C79.197 17.5036 79.2823 17.1194 79.2823 16.7351C79.2823 16.3936 79.197 16.0947 79.0689 15.7959L78.6422 15.9667C78.7276 16.1801 78.8129 16.4363 78.8129 16.6924C78.8129 16.9913 78.7276 17.2901 78.5142 17.6317C78.3009 17.9732 77.9595 18.4001 77.4048 18.8271L77.7462 19.254Z" fill="#008D75" class=""></path><path d="M77.4477 20.3219C78.4291 19.6389 79.0692 19.0839 79.4105 18.5289C79.7519 17.9739 79.8799 17.4189 79.8799 16.9492C79.8799 16.8639 79.8799 16.7358 79.8799 16.6504L79.4105 16.6931C79.4105 16.7785 79.4105 16.8639 79.4105 16.9492C79.4105 17.3762 79.3252 17.8031 79.0265 18.2727C78.7278 18.7423 78.1731 19.2973 77.1917 19.9377L77.4477 20.3219Z" fill="#008D75" class=""></path><path d="M76.9779 21.5167C78.002 21.1325 78.8981 20.4494 79.4955 19.7236C79.7942 19.3821 80.0502 18.9979 80.2209 18.6136C80.3915 18.2721 80.4769 17.9306 80.4769 17.589C80.4769 17.5463 80.4769 17.5036 80.4769 17.4609L80.0075 17.5036V17.589C80.0075 17.8025 79.9222 18.0586 79.7942 18.4002C79.5808 18.8698 79.1541 19.3821 78.642 19.8944C78.13 20.364 77.4899 20.791 76.7645 21.0898L76.9779 21.5167Z" fill="#008D75" class=""></path><path d="M77.6182 19.1261C78.1729 18.6564 78.557 18.2295 78.813 17.8026C79.069 17.3757 79.1544 16.9914 79.1544 16.6072C79.1544 16.2657 79.069 15.9668 78.941 15.668L78.5143 15.8387C78.5997 16.0522 78.685 16.3084 78.685 16.5645C78.685 16.8634 78.5997 17.1622 78.3863 17.5037C78.1729 17.8453 77.8316 18.2722 77.2769 18.6991L77.6182 19.1261Z" fill="white" class=""></path><path d="M77.3194 20.193C78.3008 19.51 78.9409 18.955 79.2822 18.4C79.6236 17.845 79.7516 17.2899 79.7516 16.8203C79.7516 16.7349 79.7516 16.6069 79.7516 16.5215L79.2822 16.5642C79.2822 16.6496 79.2822 16.7349 79.2822 16.8203C79.2822 17.2473 79.1969 17.6742 78.8982 18.1438C78.5995 18.6134 78.0448 19.1684 77.0634 19.8088L77.3194 20.193Z" fill="white" class=""></path><path d="M76.8073 21.3458C77.8314 20.9616 78.7275 20.2785 79.3249 19.5527C79.6236 19.2112 79.8796 18.827 80.0503 18.4427C80.221 18.1012 80.3064 17.7597 80.3064 17.4181C80.3064 17.3754 80.3064 17.3327 80.3064 17.29L79.837 17.3327V17.4181C79.837 17.6316 79.7516 17.8877 79.6236 18.2293C79.4103 18.6989 78.9836 19.2112 78.4715 19.7235C77.9595 20.1931 77.3194 20.6201 76.594 20.9189L76.8073 21.3458Z" fill="white" class=""></path><path d="M99.4658 42.0518L101.258 42.991V44.101H98.6978V43.2471H97.631V44.5279L99.5085 44.6133L101.258 45.5099V47.431L99.5939 48.3276H96.6922L95.0281 47.431V46.321H97.631V47.1322H98.6978V45.8087L96.8203 45.766L95.0281 44.8695V42.991L96.7349 42.0518H99.4658Z" fill="white" class=""></path><path d="M81.2722 18.4505C82.7396 17.8425 83.4764 16.1594 82.9178 14.6912C82.3591 13.223 80.7166 12.5256 79.2491 13.1336C77.7817 13.7415 77.0449 15.4246 77.6036 16.8928C78.1622 18.3611 79.8047 19.0584 81.2722 18.4505Z" fill="white" class=""></path><path d="M82.0086 16.3592C83.8046 15.6151 84.7063 13.5552 84.0226 11.7583C83.3389 9.96132 81.3287 9.10782 79.5327 9.85192C77.7367 10.596 76.835 12.6559 77.5187 14.4529C78.2024 16.2498 80.2126 17.1033 82.0086 16.3592Z" fill="white" class=""></path><path fill-rule="evenodd" clip-rule="evenodd" d="M77.4478 14.4724C78.1732 16.3081 80.3067 17.2047 82.1416 16.4789C83.9764 15.7531 84.8725 13.6185 84.1471 11.7827C83.4217 9.94694 81.2882 9.0504 79.4533 9.77617C77.6185 10.5019 76.7224 12.6366 77.4478 14.4724ZM77.5332 14.3869C76.8078 12.5938 77.7039 10.5873 79.4961 9.86152C81.2883 9.17844 83.2938 10.0323 84.0192 11.8254C84.7446 13.6185 83.8485 15.625 82.0563 16.3508C80.2642 17.0766 78.2586 16.18 77.5332 14.3869Z" fill="#191F1C" class=""></path><path fill-rule="evenodd" clip-rule="evenodd" d="M77.4478 14.4724C78.1732 16.3081 80.3067 17.2047 82.1416 16.4789C83.9764 15.7531 84.8725 13.6185 84.1471 11.7827C83.4217 9.94694 81.2882 9.0504 79.4533 9.77617C77.6185 10.5019 76.7224 12.6366 77.4478 14.4724ZM77.5332 14.3869C76.8078 12.5938 77.7039 10.5873 79.4961 9.86152C81.2883 9.17844 83.2938 10.0323 84.0192 11.8254C84.7446 13.6185 83.8485 15.625 82.0563 16.3508C80.2642 17.0766 78.2586 16.18 77.5332 14.3869Z" fill="#191F1C" class=""></path><path d="M79.3679 16.4361H79.3253C79.2826 16.4361 79.2826 16.3934 79.3253 16.3507C79.9227 15.5823 80.0934 14.515 79.7093 13.5757C79.3253 12.6365 78.5145 11.9961 77.4904 11.8253C77.4478 11.8253 77.4478 11.7827 77.4478 11.74C77.4478 11.6973 77.4904 11.6973 77.5331 11.6973C78.5572 11.868 79.4533 12.5511 79.8373 13.533C80.2214 14.4723 80.0507 15.5823 79.3679 16.4361C79.3679 16.4361 79.4106 16.3934 79.3679 16.4361Z" fill="#F8972A" class=""></path><path d="M77.5631 12.1672H77.5054C77.4478 12.1672 77.4478 12.1245 77.4478 12.0818L77.7937 11.4841C77.7937 11.4414 77.8513 11.4414 77.909 11.4414C77.9666 11.4414 77.9666 11.4841 77.9666 11.5268L77.5631 12.1672C77.6207 12.1672 77.6207 12.1672 77.5631 12.1672Z" fill="#F8972A" class=""></path><path d="M77.7764 12.2101H77.7188C77.6611 12.2101 77.6611 12.1675 77.6611 12.1248L78.007 11.5271C78.007 11.4844 78.0647 11.4844 78.1223 11.4844C78.18 11.4844 78.18 11.5271 78.18 11.5698L77.7764 12.2101C77.8341 12.2101 77.8341 12.2101 77.7764 12.2101Z" fill="#F8972A" class=""></path><path d="M77.9898 12.2521H77.9322C77.8745 12.2521 77.8745 12.2094 77.8745 12.1668L78.2781 11.5691C78.2781 11.5264 78.3357 11.5264 78.3934 11.5264C78.451 11.5264 78.451 11.5691 78.451 11.6118L77.9898 12.2521C78.0475 12.2521 78.0475 12.2521 77.9898 12.2521Z" fill="#F8972A" class=""></path><path d="M78.2456 12.3381H78.1879C78.1302 12.3381 78.1302 12.2954 78.1302 12.2527L78.5338 11.655C78.5338 11.6123 78.5915 11.6123 78.6491 11.6123C78.7068 11.6123 78.7068 11.655 78.7068 11.6977L78.2456 12.3381Z" fill="#F8972A" class=""></path><path d="M78.5015 12.466H78.4439C78.3862 12.466 78.3862 12.4233 78.3862 12.3806L78.7898 11.7829C78.7898 11.7402 78.8474 11.7402 78.9051 11.7402C78.9627 11.7402 78.9627 11.7829 78.9627 11.8256L78.5015 12.466Z" fill="#F8972A" class=""></path><path d="M78.6486 12.6363H78.6025C78.5563 12.6363 78.5563 12.5936 78.6025 12.5509L79.0175 11.9959C79.0175 11.9532 79.0637 11.9532 79.1098 11.9959C79.1559 11.9959 79.1559 12.0386 79.1098 12.0813L78.6486 12.6363C78.6947 12.6363 78.6947 12.6363 78.6486 12.6363Z" fill="#F8972A" class=""></path><path d="M78.856 12.7645H78.8133C78.7706 12.7645 78.7706 12.7218 78.8133 12.6791L79.2403 12.1668C79.2403 12.1241 79.283 12.1241 79.3257 12.1668C79.3684 12.1668 79.3684 12.2095 79.3257 12.2522L78.856 12.7645Z" fill="#F8972A" class=""></path><path d="M79.0264 12.9629C78.9838 12.9629 78.9838 12.9629 78.9411 12.9629C78.8984 12.9182 78.9411 12.9182 78.9411 12.8734L79.4531 12.3812C79.4958 12.3365 79.4958 12.3812 79.5385 12.3812C79.5811 12.426 79.5385 12.426 79.5385 12.4707L79.0264 12.9629Z" fill="#F8972A" class=""></path><path d="M79.1121 13.1953C79.0694 13.1953 79.0694 13.1953 79.0267 13.1452C79.0267 13.0951 79.0267 13.0951 79.0267 13.0449L79.5815 12.5938C79.6241 12.5938 79.6241 12.5938 79.6668 12.5938C79.6668 12.6439 79.6668 12.6439 79.6668 12.694L79.1121 13.1953C79.1547 13.1953 79.1547 13.1953 79.1121 13.1953Z" fill="#F8972A" class=""></path><path d="M79.2826 13.4942C79.2399 13.4942 79.2399 13.4942 79.1973 13.434C79.1973 13.3738 79.1973 13.3137 79.2399 13.3137L79.8373 12.8926C79.88 12.8926 79.9227 12.8926 79.9227 12.9527C79.9227 13.0129 79.9227 13.0731 79.88 13.0731L79.2826 13.4942Z" fill="#F8972A" class=""></path><path d="M79.3678 13.751C79.3251 13.751 79.3251 13.751 79.2825 13.6908C79.2825 13.6307 79.2825 13.5705 79.3251 13.5705L79.9225 13.1494C79.9652 13.1494 80.0079 13.1494 80.0079 13.2096C80.0079 13.2697 80.0079 13.3299 79.9652 13.3299L79.3678 13.751C79.3678 13.751 79.4105 13.751 79.3678 13.751Z" fill="#F8972A" class=""></path><path d="M80.0933 13.6287L79.4533 13.9897C79.4106 13.9897 79.3679 13.9897 79.3679 13.9295C79.3679 13.8693 79.3679 13.8092 79.4106 13.8092L80.0507 13.4482C80.0933 13.4482 80.136 13.4482 80.136 13.5084C80.136 13.5686 80.136 13.5686 80.0933 13.6287Z" fill="#F8972A" class=""></path><path d="M80.1784 13.8846C80.1784 13.9447 80.1784 13.9447 80.1784 13.8846L79.5383 14.1854C79.4957 14.1854 79.453 14.1854 79.453 14.1252C79.453 14.065 79.453 14.0049 79.4957 14.0049L80.1357 13.7041C80.1784 13.7041 80.2211 13.7041 80.2211 13.7643C80.2211 13.8846 80.2211 13.8846 80.1784 13.8846Z" fill="#F8972A" class=""></path><path d="M80.2639 14.2264L79.5812 14.4068C79.5385 14.4068 79.5385 14.4068 79.4958 14.3467C79.4958 14.2865 79.4958 14.2865 79.5385 14.2264L80.1786 14.0459C80.2213 14.0459 80.2213 14.0459 80.2639 14.1061C80.3066 14.1662 80.2639 14.1662 80.2639 14.2264Z" fill="#F8972A" class=""></path><path d="M80.3068 14.4822L79.624 14.6025C79.5814 14.6025 79.5814 14.6025 79.5387 14.5424C79.5387 14.4822 79.5387 14.4822 79.5814 14.4221L80.2641 14.3018C80.3068 14.3018 80.3068 14.3018 80.3494 14.3619C80.3494 14.4822 80.3494 14.4822 80.3068 14.4822Z" fill="#F8972A" class=""></path><path d="M80.2641 14.8059H79.5814C79.5387 14.8059 79.5387 14.7457 79.5387 14.7457C79.5387 14.6855 79.5814 14.6855 79.5814 14.6855H80.2641C80.3068 14.6855 80.3068 14.7457 80.3068 14.7457C80.3068 14.7457 80.3068 14.8059 80.2641 14.8059Z" fill="#F8972A" class=""></path><path d="M80.3067 15.2002C80.264 15.2002 80.264 15.2604 80.3067 15.2002L79.624 15.0799C79.5813 15.0799 79.5813 15.0197 79.5813 14.9596C79.5813 14.8994 79.624 14.8994 79.6666 14.8994L80.3494 15.0197C80.392 15.0197 80.392 15.0799 80.392 15.14C80.3067 15.2002 80.3067 15.2002 80.3067 15.2002Z" fill="#F8972A" class=""></path><path d="M80.2213 15.6547L79.5385 15.2938C79.4958 15.2938 79.4958 15.2336 79.4958 15.1734C79.4958 15.1133 79.5385 15.1133 79.5812 15.1133L80.2213 15.4742C80.2639 15.5344 80.2639 15.5344 80.2213 15.6547C80.2639 15.6547 80.2639 15.5945 80.2213 15.6547Z" fill="#F8972A" class=""></path><path d="M80.1357 15.9707H80.0931L79.4957 15.5496C79.453 15.5496 79.453 15.4895 79.453 15.4293C79.453 15.3691 79.4957 15.3691 79.5383 15.3691L80.1357 15.7902C80.1784 15.7902 80.1784 15.8504 80.1357 15.9707C80.1357 15.9106 80.1357 15.9106 80.1357 15.9707Z" fill="#F8972A" class=""></path><path d="M79.9655 16.1943H79.9228L79.3681 15.7336C79.3254 15.7336 79.3254 15.6824 79.3681 15.6312C79.3681 15.58 79.4107 15.58 79.4534 15.6312L80.0081 16.092C80.0081 16.092 80.0081 16.1432 79.9655 16.1943C80.0081 16.1943 80.0081 16.1943 79.9655 16.1943Z" fill="#F8972A" class=""></path><path d="M79.88 16.4512H79.8373L79.2826 16.0035C79.2399 16.0035 79.2399 15.9475 79.2826 15.8916C79.2826 15.8356 79.3253 15.8356 79.368 15.8916L79.9227 16.3393C79.88 16.3393 79.9227 16.3952 79.88 16.4512Z" fill="#F8972A" class=""></path><path d="M79.7518 16.6113H79.7092L79.1118 16.1902C79.0691 16.1902 79.0691 16.1301 79.0691 16.0699C79.0691 16.0098 79.1118 16.0098 79.1544 16.0098L79.7518 16.4309C79.7945 16.491 79.7945 16.5512 79.7518 16.6113C79.7518 16.6113 79.7945 16.6113 79.7518 16.6113Z" fill="#F8972A" class=""></path><path d="M84.0618 14.558C82.995 14.3872 82.1416 13.7041 81.7575 12.7222C81.3735 11.7403 81.5442 10.6303 82.1842 9.81913C82.1842 9.77644 82.2269 9.77644 82.2696 9.81913C82.3123 9.81913 82.3123 9.86182 82.2696 9.90451C81.6722 10.673 81.5015 11.7403 81.8855 12.6795C82.2696 13.6188 83.0803 14.2592 84.1044 14.4299C84.1471 14.4299 84.1471 14.4726 84.1471 14.5153C84.1044 14.558 84.0618 14.558 84.0618 14.558Z" fill="#F8972A" class=""></path><path d="M82.483 10.3608H82.4404L81.843 9.99981C81.8003 9.99981 81.8003 9.93965 81.8003 9.87949C81.8003 9.81934 81.843 9.81934 81.8856 9.81934L82.483 10.1803C82.5257 10.2404 82.5257 10.3006 82.483 10.3608C82.483 10.3608 82.5257 10.3608 82.483 10.3608Z" fill="#F8972A" class=""></path><path d="M82.3551 10.5317H82.3124L81.715 10.1707C81.6724 10.1707 81.6724 10.1105 81.6724 10.0504C81.6724 9.99023 81.715 9.99023 81.7577 9.99023L82.3551 10.3512C82.3978 10.4113 82.3978 10.4715 82.3551 10.5317Z" fill="#F8972A" class=""></path><path d="M82.2269 10.7445H82.1842L81.5441 10.3836C81.5015 10.3836 81.5015 10.3234 81.5015 10.2633C81.5015 10.2031 81.5441 10.2031 81.5868 10.2031L82.2269 10.5641C82.2695 10.5641 82.2695 10.6242 82.2269 10.7445C82.2269 10.7445 82.2695 10.6844 82.2269 10.7445Z" fill="#F8972A" class=""></path><path d="M82.0989 10.9584H82.0563L81.4162 10.5975C81.3735 10.5975 81.3735 10.5373 81.3735 10.4771C81.3735 10.417 81.4162 10.417 81.4589 10.417L82.0989 10.7779C82.1416 10.7779 82.1843 10.8381 82.0989 10.9584C82.1416 10.9584 82.1416 10.8983 82.0989 10.9584Z" fill="#F8972A" class=""></path><path d="M82.0137 11.1971L81.331 10.8963C81.2883 10.8963 81.2883 10.8361 81.2883 10.776C81.2883 10.7158 81.331 10.7158 81.3737 10.7158L82.0137 11.0166C82.0564 11.0768 82.0564 11.1369 82.0137 11.1971C82.0564 11.1971 82.0564 11.1971 82.0137 11.1971Z" fill="#F8972A" class=""></path><path d="M81.971 11.4186L81.2883 11.2381C81.2456 11.2381 81.2456 11.1779 81.2456 11.1178C81.2456 11.0576 81.2883 11.0576 81.3309 11.0576L81.971 11.2381C82.0137 11.2381 82.0137 11.2982 81.971 11.4186C82.0137 11.4186 82.0137 11.3584 81.971 11.4186Z" fill="#F8972A" class=""></path><path d="M81.971 11.6572C81.9283 11.6572 81.9283 11.6572 81.971 11.6572L81.2883 11.5369C81.2456 11.5369 81.2456 11.4768 81.2456 11.4166C81.2456 11.3564 81.2883 11.3564 81.3309 11.3564L82.0137 11.4768C82.0564 11.4768 82.0564 11.5369 82.0564 11.5971C81.971 11.5971 81.971 11.5971 81.971 11.6572Z" fill="#F8972A" class=""></path><path d="M81.971 11.8176C81.9283 11.8176 81.9283 11.8176 81.971 11.8176H81.2883C81.2456 11.8176 81.2456 11.7574 81.2456 11.7574C81.2456 11.6973 81.2883 11.6973 81.2883 11.6973H81.971C82.0137 11.6973 82.0137 11.7574 82.0137 11.7574C81.971 11.7574 81.971 11.8176 81.971 11.8176Z" fill="#F8972A" class=""></path><path d="M81.971 12.0486L81.2882 12.2291C81.2456 12.2291 81.2456 12.2291 81.2029 12.169C81.2029 12.1088 81.2029 12.1088 81.2456 12.0486L81.8856 11.8682C81.9283 11.8682 81.9283 11.8682 81.971 11.9283C82.0136 11.9885 82.0136 12.0486 81.971 12.0486Z" fill="#F8972A" class=""></path><path d="M82.0137 12.2625L81.3737 12.5633C81.331 12.5633 81.2883 12.5633 81.2883 12.5031C81.2883 12.443 81.2883 12.3828 81.331 12.3828L81.9711 12.082C82.0137 12.082 82.0564 12.082 82.0564 12.1422C82.0564 12.2023 82.0564 12.2625 82.0137 12.2625Z" fill="#F8972A" class=""></path><path d="M82.0989 12.5613L81.4589 12.8621C81.4162 12.8621 81.3735 12.8621 81.3735 12.802C81.3735 12.7418 81.3735 12.6816 81.4162 12.6816L82.0563 12.3809C82.0989 12.3809 82.1416 12.3809 82.1416 12.441C82.1416 12.5012 82.1416 12.5012 82.0989 12.5613Z" fill="#F8972A" class=""></path><path d="M81.5868 13.1352C81.5441 13.1352 81.5015 13.1352 81.5015 13.075C81.5015 13.0149 81.5015 12.9547 81.5441 12.9547L82.1415 12.5938C82.1842 12.5938 82.2269 12.5938 82.2269 12.6539C82.2269 12.7141 82.2269 12.7742 82.1842 12.7742L81.5868 13.1352Z" fill="#F8972A" class=""></path><path d="M81.715 13.4092C81.6723 13.4092 81.6723 13.4092 81.6296 13.349C81.6296 13.2889 81.6296 13.2287 81.6723 13.2287L82.2697 12.8076C82.3124 12.8076 82.355 12.8076 82.355 12.8678C82.355 12.9279 82.355 12.9881 82.3124 12.9881L81.715 13.4092Z" fill="#F8972A" class=""></path><path d="M81.8856 13.6651C81.843 13.6651 81.843 13.6651 81.8003 13.6104C81.8003 13.5557 81.8003 13.501 81.8003 13.501L82.3977 13.0635C82.4404 13.0635 82.483 13.0635 82.483 13.0635C82.483 13.1182 82.483 13.1729 82.483 13.1729L81.8856 13.6651Z" fill="#F8972A" class=""></path><path d="M82.0136 13.9219C81.9709 13.9219 81.9709 13.9219 81.9282 13.9219C81.9282 13.8672 81.9282 13.8672 81.9282 13.8125L82.4829 13.3203C82.5256 13.3203 82.5256 13.3203 82.5683 13.3203C82.5683 13.375 82.5683 13.375 82.5683 13.4297L82.0136 13.9219C82.0136 13.9219 82.0136 13.8672 82.0136 13.9219Z" fill="#F8972A" class=""></path><path d="M82.2696 13.9883C82.2269 13.9883 82.2269 13.9883 82.1842 13.9883C82.1416 13.9436 82.1842 13.9436 82.1842 13.8988L82.6963 13.4066C82.739 13.3619 82.739 13.4066 82.7816 13.4066C82.8243 13.4514 82.7816 13.4514 82.7816 13.4961L82.2696 13.9883Z" fill="#F8972A" class=""></path><path d="M82.5257 14.2596H82.483C82.4403 14.2596 82.4403 14.2169 82.483 14.1742L82.91 13.6619C82.91 13.6192 82.9527 13.6192 82.9954 13.6619C83.0381 13.6619 83.0381 13.7046 82.9954 13.7473L82.5257 14.2596Z" fill="#F8972A" class=""></path><path d="M82.8116 14.4728H82.7539C82.6963 14.4728 82.6963 14.4302 82.6963 14.3875L83.0998 13.7898C83.0998 13.7471 83.1575 13.7471 83.2151 13.7471C83.2728 13.7471 83.2728 13.7898 83.2728 13.8325L82.8116 14.4728C82.8692 14.4728 82.8692 14.4728 82.8116 14.4728Z" fill="#F8972A" class=""></path><path d="M83.1104 14.6005C83.1104 14.6005 83.0528 14.6005 83.1104 14.6005C82.9951 14.6005 82.9951 14.5578 82.9951 14.5151L83.2834 13.8747C83.2834 13.832 83.341 13.832 83.3987 13.832C83.4563 13.832 83.4563 13.8747 83.4563 13.9174L83.1104 14.6005Z" fill="#F8972A" class=""></path><path d="M83.4092 14.7284C83.2939 14.7284 83.2939 14.6857 83.2939 14.643L83.4669 14.0027C83.4669 13.96 83.5246 13.96 83.5822 13.96C83.6399 13.96 83.6399 14.0027 83.6399 14.0453L83.4092 14.7284C83.4669 14.7284 83.4669 14.7284 83.4092 14.7284Z" fill="#F8972A" class=""></path><path d="M83.6651 14.8144C83.6651 14.8144 83.6075 14.8144 83.6651 14.8144C83.5498 14.8144 83.5498 14.7717 83.5498 14.729L83.7804 14.0886C83.7804 14.0459 83.8381 14.0459 83.8957 14.0459C83.9534 14.0459 83.9534 14.0886 83.9534 14.1313L83.6651 14.8144C83.6651 14.8144 83.7228 14.8144 83.6651 14.8144Z" fill="#F8972A" class=""></path><path d="M83.8358 14.8573C83.8358 14.8573 83.7781 14.8573 83.8358 14.8573C83.7205 14.8573 83.7205 14.8146 83.7205 14.7719L84.0087 14.1316C84.0087 14.0889 84.0664 14.0889 84.124 14.0889C84.1817 14.0889 84.1817 14.1316 84.1817 14.1743L83.8358 14.8573C83.8358 14.8146 83.8934 14.8146 83.8358 14.8573Z" fill="#F8972A" class=""></path><path d="M84.2495 12.0714C85.6547 10.0061 85.2554 7.19208 83.3576 5.78618C81.4599 4.38029 78.7823 4.91484 77.3771 6.98015C75.9719 9.04546 76.3712 11.8594 78.269 13.2653C80.1667 14.6712 82.8443 14.1367 84.2495 12.0714Z" fill="white" class=""></path><path d="M80.8612 13.4051C80.9039 13.4478 80.9039 13.4905 80.8612 13.4905C80.8612 13.4905 80.5198 13.9601 80.2638 14.0881C80.2211 14.0881 80.1785 14.0881 80.1785 14.0455C80.1785 14.0028 80.1785 13.9601 80.2211 13.9601C80.4772 13.832 80.7759 13.4051 80.7759 13.4051C80.7759 13.3624 80.8185 13.3624 80.8612 13.4051Z" fill="#191F1C" class=""></path><path d="M83.2511 13.2967C83.2511 13.2967 83.2938 13.3569 83.2938 13.417C83.2938 13.4772 83.2511 13.5373 83.2084 13.5373C82.9524 13.4772 82.611 13.2967 82.611 13.2967C82.5684 13.2967 82.5684 13.2365 82.5684 13.1764C82.5684 13.1162 82.611 13.1162 82.6537 13.1162C82.6537 12.9959 82.9524 13.2365 83.2511 13.2967C83.2511 13.2365 83.2511 13.2365 83.2511 13.2967Z" fill="#191F1C" class=""></path><path d="M79.9651 12.2527L80.0077 12.2954C80.0077 12.3381 79.9651 12.3808 79.9224 12.3808C79.8797 12.3808 79.1117 12.3381 77.9595 11.7404C77.9169 11.7404 77.9169 11.6977 77.9169 11.655C77.9169 11.6123 77.9595 11.6123 78.0022 11.6123C79.1543 12.21 79.9224 12.2527 79.9651 12.2527C79.9224 12.2527 79.9224 12.2527 79.9651 12.2527Z" fill="#191F1C" class=""></path><path d="M78.8128 8.23926C78.8555 8.28195 78.8555 8.32464 78.8128 8.36734C77.874 9.26388 77.5327 9.77619 77.5327 9.77619C77.5327 9.81888 77.4473 9.81888 77.4473 9.81888C77.4047 9.81888 77.4047 9.7335 77.4047 9.7335C77.4047 9.6908 77.746 9.17849 78.7275 8.28195C78.7275 8.23926 78.7701 8.23926 78.8128 8.23926Z" fill="#191F1C" class=""></path><path d="M80.6906 8.87968C81.0746 10.3739 81.288 11.1424 81.288 11.1424C81.288 11.1851 81.288 11.2278 81.2453 11.2278C81.2026 11.2278 81.1599 11.2278 81.1599 11.1851C81.1599 11.1851 80.9466 10.4166 80.6052 8.96506C80.6052 8.92237 80.6052 8.87968 80.6479 8.87968C80.6479 8.83698 80.6906 8.83698 80.6906 8.87968Z" fill="#191F1C" class=""></path><path d="M84.232 10.1182C84.2747 10.1609 84.2747 10.2035 84.232 10.2035C83.72 11.0147 82.9519 11.6124 82.9092 11.6551C82.8666 11.6978 82.8239 11.6551 82.8239 11.6551C82.7812 11.6124 82.8239 11.5697 82.8239 11.5697C82.8239 11.5697 83.592 10.972 84.104 10.1609C84.1467 10.1182 84.1894 10.1182 84.232 10.1182Z" fill="#191F1C" class=""></path><path d="M83.8908 8.11147C83.9335 8.11147 83.9335 8.15417 83.9335 8.19686C83.9335 8.23955 83.8908 8.23955 83.8482 8.23955C83.8482 8.23955 82.7387 7.81263 81.8853 7.64186C81.8426 7.64186 81.8 7.59916 81.8426 7.55647C81.8426 7.51378 81.8853 7.47109 81.928 7.51378C82.7387 7.68455 83.8482 8.11147 83.8908 8.11147C83.8482 8.11147 83.8482 8.11147 83.8908 8.11147Z" fill="#191F1C" class=""></path><path d="M81.7575 5.16581C81.8002 5.2085 81.8002 5.25119 81.7575 5.29389C81.2881 5.59273 80.9894 6.06235 80.9894 6.06235C80.9467 6.10504 80.9041 6.10504 80.9041 6.06235C80.8614 6.01966 80.8614 5.97697 80.9041 5.97697C80.9041 5.97697 81.2028 5.50735 81.7148 5.16581C81.7148 5.12312 81.7148 5.12312 81.7575 5.16581Z" fill="#191F1C" class=""></path><path d="M83.2082 5.76367C83.8482 6.44675 84.2749 7.38599 84.3176 7.42868C84.3176 7.47137 84.3176 7.51407 84.2749 7.51407C84.2323 7.51407 84.1896 7.51407 84.1896 7.47137C84.1896 7.47137 83.7629 6.48944 83.1228 5.84906C83.0802 5.80636 83.0802 5.76367 83.1228 5.76367C83.1228 5.76367 83.1655 5.76367 83.2082 5.76367Z" fill="#191F1C" class=""></path><path d="M79.0264 6.51712C79.0691 6.56282 79.0691 6.56282 79.0264 6.51712C79.1117 6.56282 79.1117 6.60852 79.0691 6.65422C79.0264 6.69991 78.9837 6.69991 78.9837 6.65422C78.9837 6.65422 78.6424 6.38003 77.9596 6.24294C77.917 6.24294 77.8743 6.19724 77.917 6.15154C77.917 6.10584 77.9596 6.06014 78.0023 6.10584C78.5997 6.24294 78.9411 6.42573 79.0264 6.51712Z" fill="#191F1C" class=""></path><path d="M77.1317 7.34288C77.1893 7.34288 77.1893 7.38557 77.1893 7.42826C76.6705 8.41019 76.9587 9.34943 76.9587 9.34943C76.9587 9.39212 76.9587 9.43481 76.9011 9.43481C76.8434 9.43481 76.7858 9.43481 76.7858 9.39212C76.7858 9.34943 76.4975 8.41019 77.0164 7.38557C76.9587 7.34288 77.0164 7.30019 77.1317 7.34288C77.1317 7.34288 77.074 7.34288 77.1317 7.34288Z" fill="#191F1C" class=""></path><path d="M77.4477 9.73384C77.2343 9.60576 76.765 9.34961 76.765 9.34961C76.6369 9.52038 76.4236 9.73384 76.4236 9.73384C76.4663 10.6304 76.765 11.5269 77.3623 12.2954C77.7464 11.9539 78.0024 11.7404 78.0024 11.7404C77.533 10.7585 77.4477 9.73384 77.4477 9.73384Z" fill="#191F1C" class=""></path><path d="M82.6535 13.1067C82.6535 13.1067 82.9095 12.6371 82.9095 11.6125C82.9095 11.6125 82.2695 11.5271 81.2027 11.1855C81.2027 11.1855 80.6906 11.7405 79.8799 12.3382C79.8799 12.3382 80.0932 12.8932 80.776 13.5336C80.776 13.4909 81.5014 13.619 82.6535 13.1067Z" fill="#191F1C" class=""></path><path d="M78.7279 8.32465C78.7279 8.32465 79.7093 8.58081 80.6481 8.96504C80.6481 8.96504 81.4588 8.0258 81.9282 7.59888C81.9282 7.59888 81.6722 6.57426 80.9468 5.97656C80.9468 5.97656 79.7946 6.01926 79.0266 6.57426C78.9839 6.57426 78.6425 7.21465 78.7279 8.32465Z" fill="#191F1C" class=""></path><path d="M84.1898 10.2027C84.1898 10.2027 84.5311 10.2027 85.0432 10.3735L85.0859 10.3308C85.2565 9.43428 85.1285 8.53774 84.7445 7.72658C84.7018 7.72658 84.6591 7.68389 84.6591 7.68389C84.6591 7.68389 84.3605 7.51312 84.2324 7.42773C84.2324 7.42773 84.1044 7.72658 83.8057 8.15351C83.7631 8.15351 84.1898 9.26351 84.1898 10.2027Z" fill="#191F1C" class=""></path><path fill-rule="evenodd" clip-rule="evenodd" d="M84.4458 12.0823C85.8539 10.1184 85.3845 7.34338 83.379 5.93453C81.3735 4.52567 78.5999 4.99529 77.2344 7.00184C75.8263 8.9657 76.2956 11.7407 78.3012 13.1496C80.264 14.5584 83.0376 14.0888 84.4458 12.0823ZM84.3175 12.0396C82.952 13.9608 80.2637 14.4304 78.3435 13.0643C76.3807 11.6981 75.954 9.00848 77.3194 7.08732C78.6849 5.16615 81.3732 4.69653 83.2934 6.06269C85.2136 7.42886 85.6829 10.1185 84.3175 12.0396Z" fill="#191F1C" class=""></path><path d="M79.5387 10.5877C82.461 10.5877 84.8299 8.2176 84.8299 5.29387C84.8299 2.37015 82.461 0 79.5387 0C76.6165 0 74.2476 2.37015 74.2476 5.29387C74.2476 8.2176 76.6165 10.5877 79.5387 10.5877Z" fill="#191F1C" class=""></path><path d="M79.6241 5.12322L80.6908 4.61091C80.2641 3.58629 80.5202 2.73244 80.8189 1.92128C80.9895 1.45166 81.1176 0.982046 81.1176 0.512428C79.9654 0.128196 78.728 0.170888 77.5332 0.683198L79.6241 5.12322Z" fill="#F8972A" class=""></path><path d="M78.344 5.72116L79.4108 5.20885L77.3199 0.811523C76.1678 1.36653 75.3571 2.34845 74.8877 3.45846C75.2717 3.75731 75.6984 3.92808 76.1678 4.09885C76.9786 4.3977 77.7893 4.73924 78.344 5.72116Z" fill="#F8972A" class=""></path><path d="M82.9523 6.4895C82.1416 6.19066 81.3308 5.84912 80.7761 4.86719L79.7094 5.3795L81.8002 9.77683C82.9523 9.22183 83.7631 8.2399 84.2325 7.12989C83.8484 6.83104 83.4217 6.66027 82.9523 6.4895Z" fill="#F8972A" class=""></path><path d="M84.3181 6.87398C84.7022 5.72128 84.6595 4.44051 84.1474 3.24512L81.0325 4.73936C81.5019 5.6359 82.2699 5.93475 83.038 6.23359C83.4647 6.40436 83.9341 6.57513 84.3181 6.87398Z" fill="#F8972A" class=""></path><path d="M79.4958 5.46484L78.429 5.97715C78.8557 7.00177 78.5997 7.85563 78.301 8.66678C78.1303 9.1364 78.0023 9.60602 78.0023 10.0756C79.1544 10.4599 80.3919 10.4172 81.5867 9.90487L79.4958 5.46484Z" fill="#F8972A" class=""></path><path d="M78.088 8.58136C78.3441 7.7702 78.6001 7.00174 78.216 6.0625L75.1011 7.55674C75.6985 8.70944 76.6372 9.56329 77.7893 9.99021C77.7893 9.4779 77.9173 9.00828 78.088 8.58136Z" fill="#F8972A" class=""></path><path d="M80.9041 4.4824L84.019 2.98816C83.4217 1.83546 82.4829 0.981613 81.3308 0.554688C81.2881 1.02431 81.1601 1.49392 80.9894 1.92085C80.7761 2.7747 80.52 3.54316 80.9041 4.4824Z" fill="#F8972A" class=""></path><path d="M78.088 5.84947C77.6186 4.95293 76.8505 4.65408 76.0825 4.35523C75.6558 4.18446 75.1864 4.01369 74.8023 3.71484C74.4183 4.86754 74.461 6.14832 74.973 7.34371L78.088 5.84947Z" fill="#F8972A" class=""></path></g><defs><clipPath id="clip0"><rect width="108" height="54" fill="white"></rect></clipPath></defs></svg>